<mxfile host="app.diagrams.net" modified="2024-04-16T10:22:23.896Z" agent="Mozilla/5.0 (Windows NT 10.0; Win64; x64) AppleWebKit/537.36 (KHTML, like Gecko) Chrome/121.0.0.0 Safari/537.36 OPR/107.0.0.0" etag="rndwH0WsQeyn0qOhlAc0" version="24.2.5" type="device">
  <diagram name="Página-1" id="VZCwGBNKFGtiEA9g-yQ6">
    <mxGraphModel dx="753" dy="1609" grid="1" gridSize="10" guides="1" tooltips="1" connect="1" arrows="1" fold="1" page="1" pageScale="1" pageWidth="827" pageHeight="1169" math="0" shadow="0">
      <root>
        <mxCell id="0" />
        <mxCell id="1" parent="0" />
        <mxCell id="451tSUfMLLCbnKArdHSB-3" value="Knn" style="html=1;whiteSpace=wrap;" vertex="1" parent="1">
          <mxGeometry x="460" y="310" width="110" height="50" as="geometry" />
        </mxCell>
        <mxCell id="451tSUfMLLCbnKArdHSB-4" value="kmeans&lt;div&gt;&lt;br&gt;&lt;/div&gt;" style="html=1;whiteSpace=wrap;" vertex="1" parent="1">
          <mxGeometry x="150" y="320" width="110" height="50" as="geometry" />
        </mxCell>
        <mxCell id="451tSUfMLLCbnKArdHSB-10" value="«interface»&lt;br&gt;&lt;b&gt;Algorithm extends Table , U ,W&lt;/b&gt;" style="html=1;whiteSpace=wrap;" vertex="1" parent="1">
          <mxGeometry x="310" y="220" width="110" height="50" as="geometry" />
        </mxCell>
        <mxCell id="451tSUfMLLCbnKArdHSB-31" value="" style="endArrow=block;dashed=1;endFill=0;endSize=12;html=1;rounded=0;exitX=0.5;exitY=0;exitDx=0;exitDy=0;entryX=0;entryY=0.5;entryDx=0;entryDy=0;" edge="1" parent="1" source="451tSUfMLLCbnKArdHSB-4" target="451tSUfMLLCbnKArdHSB-10">
          <mxGeometry width="160" relative="1" as="geometry">
            <mxPoint x="150" y="170" as="sourcePoint" />
            <mxPoint x="310" y="170" as="targetPoint" />
          </mxGeometry>
        </mxCell>
        <mxCell id="451tSUfMLLCbnKArdHSB-32" style="edgeStyle=orthogonalEdgeStyle;rounded=0;orthogonalLoop=1;jettySize=auto;html=1;exitX=0;exitY=0;exitDx=0;exitDy=0;entryX=0;entryY=0.5;entryDx=0;entryDy=0;" edge="1" parent="1" source="451tSUfMLLCbnKArdHSB-10" target="451tSUfMLLCbnKArdHSB-10">
          <mxGeometry relative="1" as="geometry" />
        </mxCell>
        <mxCell id="451tSUfMLLCbnKArdHSB-33" value="" style="endArrow=block;dashed=1;endFill=0;endSize=12;html=1;rounded=0;exitX=0.5;exitY=0;exitDx=0;exitDy=0;entryX=1;entryY=0.5;entryDx=0;entryDy=0;" edge="1" parent="1" source="451tSUfMLLCbnKArdHSB-3" target="451tSUfMLLCbnKArdHSB-10">
          <mxGeometry width="160" relative="1" as="geometry">
            <mxPoint x="510" y="190" as="sourcePoint" />
            <mxPoint x="670" y="190" as="targetPoint" />
            <Array as="points">
              <mxPoint x="540" y="320" />
            </Array>
          </mxGeometry>
        </mxCell>
        <mxCell id="451tSUfMLLCbnKArdHSB-34" value="Object" style="html=1;whiteSpace=wrap;" vertex="1" parent="1">
          <mxGeometry x="304" y="-10" width="110" height="40" as="geometry" />
        </mxCell>
        <mxCell id="451tSUfMLLCbnKArdHSB-43" value="" style="endArrow=diamondThin;endFill=0;endSize=24;html=1;rounded=0;exitX=0.5;exitY=1;exitDx=0;exitDy=0;entryX=0.5;entryY=0;entryDx=0;entryDy=0;" edge="1" parent="1" source="451tSUfMLLCbnKArdHSB-34" target="451tSUfMLLCbnKArdHSB-10">
          <mxGeometry width="160" relative="1" as="geometry">
            <mxPoint x="120" y="150" as="sourcePoint" />
            <mxPoint x="280" y="150" as="targetPoint" />
          </mxGeometry>
        </mxCell>
      </root>
    </mxGraphModel>
  </diagram>
</mxfile>
